# xmcd
#
# Track frame offsets: 
#        150
#        15490
#        29010
#        47940
#        71322
#        84022
#        104182
#        117537
#        140290
#        159862
#        174595
#        202077
#
# Disc length: 2808 seconds
#
# Revision: 4
# Processed by: cddbd v1.4PL0 Copyright (c) Steve Scherf et al.
# Submitted via: ExactAudioCopy v0.90b4
#
DISCID=a10af60c
DTITLE=Skip James - Today!
DYEAR=1900
DGENRE=Blues
TTITLE0=Hard Times Killing Floor Blues
TTITLE1=Crow Jane
TTITLE2=Washington D.C Hospital Center Blues
TTITLE3=Special Rider Blues
TTITLE4=Drunken Spree
TTITLE5=Cherryball
TTITLE6=How Long
TTITLE7=All Night Long
TTITLE8=Cypress Grove
TTITLE9=Look Down the Road
TTITLE10=My Gal
TTITLE11=I'm So Glad
EXTD=(c) 1988 Vanguard Records\nVMD 79219
EXTT0=
EXTT1=
EXTT2=
EXTT3=
EXTT4=
EXTT5=
EXTT6=
EXTT7=
EXTT8=
EXTT9=
EXTT10=
EXTT11=
PLAYORDER=
